<svg xmlns="http://www.w3.org/2000/svg" xmlns:xlink="http://www.w3.org/1999/xlink" viewBox="0,0,256,256" width="96px" height="96px" fill-rule="nonzero"><g fill="#000000" fill-rule="nonzero" stroke="none" stroke-width="1" stroke-linecap="butt" stroke-linejoin="miter" stroke-miterlimit="10" stroke-dasharray="" stroke-dashoffset="0" font-family="none" font-weight="none" font-size="none" text-anchor="none" style="mix-blend-mode: normal"><g transform="scale(2.66667,2.66667)"><path d="M63.149,83h-30.329c-3.308,0 -7.411,-1.293 -8.176,-7.453c-0.005,-0.045 -0.01,-0.09 -0.014,-0.135l-3.622,-46.178c-0.129,-1.651 1.104,-3.096 2.757,-3.226c1.651,-0.118 3.096,1.105 3.226,2.757l3.616,46.106c0.247,1.918 0.675,2.129 2.213,2.129h30.329c1.882,0 1.972,0 2.263,-2.363l3.597,-45.871c0.13,-1.651 1.551,-2.894 3.226,-2.757c1.652,0.13 2.886,1.574 2.757,3.226l-3.603,45.937c-0.004,0.044 -0.008,0.087 -0.014,0.131c-0.282,2.302 -0.943,7.697 -8.226,7.697z" opacity="0.3"></path><path d="M63.149,82h-30.329c-4.225,0 -6.642,-2.213 -7.183,-6.576l-3.632,-46.268c-0.086,-1.101 0.736,-2.063 1.838,-2.15c1.104,-0.092 2.064,0.737 2.15,1.838l3.622,46.178c0.283,2.261 1.034,2.978 3.205,2.978h30.329c2.594,0 2.935,-0.627 3.263,-3.307l3.594,-45.85c0.086,-1.102 1.067,-1.91 2.15,-1.838c1.102,0.087 1.924,1.05 1.838,2.15l-3.603,45.937c-0.443,3.63 -1.62,6.908 -7.242,6.908z" opacity="0.3"></path><path d="M75,27h-54c-1.657,0 -3,-1.343 -3,-3c0,-1.657 1.343,-3 3,-3h54c1.657,0 3,1.343 3,3c0,1.657 -1.343,3 -3,3z" opacity="0.3"></path><path d="M75,26h-54c-1.104,0 -2,-0.896 -2,-2c0,-1.104 0.896,-2 2,-2h54c1.104,0 2,0.896 2,2c0,1.104 -0.896,2 -2,2z" opacity="0.3"></path><path d="M37.998,66c-1.598,0 -2.925,-1.259 -2.995,-2.87l-1,-23c-0.072,-1.655 1.212,-3.055 2.867,-3.127c1.633,-0.086 3.055,1.211 3.127,2.867l1,23c0.072,1.655 -1.212,3.055 -2.867,3.127c-0.044,0.002 -0.088,0.003 -0.132,0.003z" opacity="0.3"></path><path d="M37.998,65c-1.064,0 -1.949,-0.839 -1.996,-1.913l-1,-23c-0.048,-1.104 0.808,-2.037 1.911,-2.085c1.095,-0.018 2.037,0.808 2.085,1.911l1,23c0.048,1.104 -0.808,2.037 -1.911,2.085c-0.029,0.001 -0.06,0.002 -0.089,0.002z" opacity="0.3"></path><path d="M58.002,66c-0.044,0 -0.088,-0.001 -0.132,-0.003c-1.655,-0.072 -2.939,-1.472 -2.867,-3.127l1,-23c0.072,-1.656 1.493,-2.941 3.127,-2.867c1.655,0.072 2.939,1.472 2.867,3.127l-1,23c-0.07,1.611 -1.398,2.87 -2.995,2.87z" opacity="0.3"></path><path d="M58.002,65c-0.03,0 -0.06,-0.001 -0.089,-0.002c-1.104,-0.048 -1.959,-0.981 -1.911,-2.085l1,-23c0.048,-1.104 1.02,-1.943 2.085,-1.911c1.104,0.048 1.959,0.981 1.911,2.085l-1,23c-0.047,1.074 -0.932,1.913 -1.996,1.913z" opacity="0.3"></path><path d="M48,66c-1.657,0 -3,-1.343 -3,-3v-23c0,-1.657 1.343,-3 3,-3c1.657,0 3,1.343 3,3v23c0,1.657 -1.343,3 -3,3z" opacity="0.3"></path><path d="M48,65c-1.104,0 -2,-0.896 -2,-2v-23c0,-1.104 0.896,-2 2,-2c1.104,0 2,0.896 2,2v23c0,1.104 -0.896,2 -2,2z" opacity="0.3"></path><path d="M58.003,22c-0.06,0 -0.119,-0.002 -0.179,-0.005c-1.654,-0.098 -2.916,-1.518 -2.819,-3.171c0.023,-0.396 -0.011,-0.622 -0.037,-0.729c-0.122,-0.041 -0.403,-0.106 -0.918,-0.095h-12.05c-0.474,0 -0.786,0.038 -0.979,0.075c-0.021,0.272 -0.021,0.647 -0.021,0.925c0,1.657 -1.343,3 -3,3c-1.657,0 -3,-1.343 -3,-3c0,-1.731 0,-7 7,-7h12c2.277,-0.012 4.062,0.611 5.324,1.929c1.237,1.29 1.8,3.056 1.671,5.247c-0.094,1.595 -1.416,2.824 -2.992,2.824zM55.047,18.126v0z" opacity="0.3"></path><path d="M58.002,21c-0.04,0 -0.079,-0.001 -0.119,-0.004c-1.103,-0.064 -1.944,-1.011 -1.879,-2.113c0.042,-0.726 -0.061,-1.256 -0.289,-1.494c-0.249,-0.261 -0.854,-0.402 -1.682,-0.389h-12.033c-2,0 -2,0.037 -2,2c0,1.104 -0.896,2 -2,2c-1.104,0 -2,-0.896 -2,-2c0,-1.947 0,-6 6,-6h12c1.999,-0.029 3.54,0.513 4.603,1.62c1.037,1.082 1.506,2.595 1.394,4.497c-0.062,1.063 -0.944,1.883 -1.995,1.883z" opacity="0.3"></path><path d="M63.149,81h-30.329c-3.689,0 -5.715,-1.864 -6.19,-5.699l-3.627,-46.223c-0.043,-0.551 0.368,-1.032 0.919,-1.075c0.544,-0.04 1.032,0.367 1.075,0.919l3.622,46.178c0.353,2.831 1.492,3.9 4.201,3.9h30.329c3.389,0 3.898,-1.275 4.256,-4.186l3.598,-45.893c0.043,-0.552 0.531,-0.958 1.075,-0.919c0.551,0.043 0.962,0.524 0.919,1.075l-3.603,45.937c-0.373,3.05 -1.158,5.986 -6.245,5.986z"></path><path d="M75,25h-54c-0.553,0 -1,-0.447 -1,-1c0,-0.553 0.447,-1 1,-1h54c0.553,0 1,0.447 1,1c0,0.553 -0.447,1 -1,1z"></path><path d="M37.999,64c-0.532,0 -0.975,-0.42 -0.998,-0.957l-1,-23c-0.024,-0.552 0.404,-1.018 0.956,-1.042c0.559,-0.032 1.018,0.404 1.042,0.956l1,23c0.024,0.552 -0.404,1.018 -0.956,1.042c-0.015,0.001 -0.029,0.001 -0.044,0.001z"></path><path d="M58.001,64c-0.015,0 -0.029,0 -0.044,-0.001c-0.552,-0.024 -0.98,-0.49 -0.956,-1.042l1,-23c0.024,-0.552 0.498,-0.986 1.042,-0.956c0.552,0.024 0.98,0.49 0.956,1.042l-1,23c-0.023,0.537 -0.466,0.957 -0.998,0.957z"></path><path d="M48,64c-0.553,0 -1,-0.447 -1,-1v-23c0,-0.553 0.447,-1 1,-1c0.553,0 1,0.447 1,1v23c0,0.553 -0.447,1 -1,1z"></path><path d="M58.001,20c-0.02,0 -0.04,-0.001 -0.06,-0.002c-0.552,-0.032 -0.972,-0.506 -0.939,-1.057c0.061,-1.035 -0.13,-1.79 -0.565,-2.245c-0.461,-0.481 -1.294,-0.714 -2.42,-0.696h-12.017c-3,0 -3,1.003 -3,3c0,0.553 -0.447,1 -1,1c-0.553,0 -1,-0.447 -1,-1c0,-1.991 0,-5 5,-5h12c1.722,-0.028 3.019,0.414 3.881,1.313c0.836,0.872 1.212,2.133 1.117,3.746c-0.031,0.531 -0.472,0.941 -0.997,0.941z"></path></g></g></svg>